# xmcd CD Database Entry
#
# Track frame offsets:
# 183
# 15275
# 35173
# 55630
# 75983
#
# Disc length: 1129 seconds
#
# Revision: 2
# Processed by: cddbd v1.4PL0 Copyright (c) Steve Scherf et al.
# Submitted via: tcd 2.0b
#
DISCID=2a046705
DTITLE=TRuck Bunny - TB1
DYEAR=1900
DGENRE=
TTITLE0=Blow by blow
TTITLE1=Run rabbit
TTITLE2=Lonesome fat girl's whistle
TTITLE3=Quien Canta
TTITLE4=Eve
EXTD=
EXTT0=
EXTT1=
EXTT2=
EXTT3=
EXTT4=
PLAYORDER=
